<svg xmlns="http://www.w3.org/2000/svg" viewBox="0 0 185.97 17.47"><g id="Layer_2" data-name="Layer 2"><g id="Layer_1-2" data-name="Layer 1"><path d="M1.92,2.09H1.85A1.55,1.55,0,0,0,1.38,1,1.44,1.44,0,0,0,.31.58H0V.34H1.92Zm0,13.29v1.76H0V16.9H.31a1.45,1.45,0,0,0,1.07-.45,1.53,1.53,0,0,0,.47-1.07Zm4.2-15v16.8H1.85V.34Zm2.69,0A11.29,11.29,0,0,1,11,.55a6.4,6.4,0,0,1,1.95.73,3.91,3.91,0,0,1,1.4,1.4,4.28,4.28,0,0,1,.51,2.19,5.47,5.47,0,0,1-.37,2,4.22,4.22,0,0,1-1.22,1.7,4.42,4.42,0,0,1-2.3.91,3.86,3.86,0,0,1,1.6.93,7.4,7.4,0,0,1,1.12,1.33,2.39,2.39,0,0,0,.24.43c.14.24.33.54.56.89l.71,1.08c.24.37.47.69.69,1a9.64,9.64,0,0,0,1,1.09,2.44,2.44,0,0,0,.86.56,3.88,3.88,0,0,0,1,.18v.24H16.08a13.92,13.92,0,0,1-2.51-.21,5.8,5.8,0,0,1-2-.75A4.92,4.92,0,0,1,10,14.52a5.49,5.49,0,0,1-.43-.8c-.13-.3-.25-.6-.38-.89s-.24-.59-.34-.87l-.26-.79c-.08-.25-.15-.46-.22-.63a2.86,2.86,0,0,0-.66-1.17,1.72,1.72,0,0,0-.78-.44V8.69h.55A2.77,2.77,0,0,0,8.71,8.4a2.59,2.59,0,0,0,1-.91,4.31,4.31,0,0,0,.57-1.66,3.06,3.06,0,0,0,.07-.48,3,3,0,0,0,0-.6,3.58,3.58,0,0,0-.87-2.49,2.72,2.72,0,0,0-1.91-.77H6.05L5.81.34Zm-2.76,15h.07a1.41,1.41,0,0,0,.46,1.07,1.47,1.47,0,0,0,1.08.45h.28v.24H6.05Z" style="fill:#fff"/><path d="M26.38,2.45a12,12,0,0,1,3.56.5,7.86,7.86,0,0,1,2.74,1.48A6.21,6.21,0,0,1,34.4,6.79,8,8,0,0,1,35,10a7.77,7.77,0,0,1-.59,3.13,6.18,6.18,0,0,1-1.72,2.35,7.86,7.86,0,0,1-2.74,1.48,11.65,11.65,0,0,1-3.56.5,11.71,11.71,0,0,1-3.57-.5,7.81,7.81,0,0,1-2.73-1.48,6.2,6.2,0,0,1-1.73-2.35A7.94,7.94,0,0,1,17.76,10a8.14,8.14,0,0,1,.59-3.17,6.24,6.24,0,0,1,1.73-2.36A7.81,7.81,0,0,1,22.81,3,12,12,0,0,1,26.38,2.45Zm0,14a3.6,3.6,0,0,0,2.32-.77,4.78,4.78,0,0,0,1.48-2.22A10.52,10.52,0,0,0,30.7,10a10.62,10.62,0,0,0-.52-3.5A4.85,4.85,0,0,0,28.7,4.22a3.94,3.94,0,0,0-4.65,0,4.94,4.94,0,0,0-1.49,2.24A10.35,10.35,0,0,0,22,10a10.25,10.25,0,0,0,.53,3.47,4.87,4.87,0,0,0,1.49,2.22A3.61,3.61,0,0,0,26.38,16.42Z" style="fill:#fff"/><path d="M37.75,4.22h-.07a1.11,1.11,0,0,0-.35-.9A1.29,1.29,0,0,0,36.41,3h-.27V2.74h1.61Zm0,11.43v1.49H36.14V16.9h.27a1.27,1.27,0,0,0,.92-.36,1.1,1.1,0,0,0,.35-.89Zm4-12.91v14.4h-4V2.74Zm1.39,0a13.57,13.57,0,0,1,2,.14,6,6,0,0,1,1.79.54,3.29,3.29,0,0,1,1.27,1.09,3.13,3.13,0,0,1,.48,1.8,3.24,3.24,0,0,1-.38,1.62,2.71,2.71,0,0,1-1,1A2.86,2.86,0,0,1,46,9.29a4.11,4.11,0,0,1,1.83.51,3.74,3.74,0,0,1,1.34,1.28A3.51,3.51,0,0,1,49.7,13a3.59,3.59,0,0,1-.48,1.91,3.69,3.69,0,0,1-1.33,1.27,6.42,6.42,0,0,1-2,.72,12.56,12.56,0,0,1-2.44.23H41.52c0-.34,0-.68,0-1h.6a3.43,3.43,0,0,0,1.47-.31,2.45,2.45,0,0,0,1.09-1,4.07,4.07,0,0,0,.42-2,4.72,4.72,0,0,0-.18-1.36,2.9,2.9,0,0,0-.53-1,2.13,2.13,0,0,0-.85-.63,3.28,3.28,0,0,0-1.18-.2V9.34a2.16,2.16,0,0,0,.92-.18,1.79,1.79,0,0,0,.64-.52,2.09,2.09,0,0,0,.39-.85,5.2,5.2,0,0,0,.12-1.17,2.93,2.93,0,0,0-.69-2.26,2.43,2.43,0,0,0-1.69-.62H39s0-.1,0-.27-.08-.41-.15-.73Z" style="fill:#fff"/><path d="M55.75,4.2l-4.49-.07a3,3,0,0,0-.88-.82A2.36,2.36,0,0,0,49.15,3h-.29V2.74h7.85V3h-.24a.79.79,0,0,0-.72.39A.78.78,0,0,0,55.75,4.2Zm-.86-1.44,4.56,7.78-3.91.21-5.19-8Zm.6,12.89v1.49H53.83V16.9h.29a1.28,1.28,0,0,0,.91-.36,1.17,1.17,0,0,0,.39-.89Zm4-5.14v6.63h-4.1V10.56Zm3.19-7.75h1.85L59.26,11,58,10.78ZM59.45,15.65h.07a1.26,1.26,0,0,0,.41.89,1.28,1.28,0,0,0,.91.36h.26v.24H59.45ZM61.87,4.22a.74.74,0,0,0,0-.85A.85.85,0,0,0,61.13,3h-.27V2.74h5.19V3h-.29a2.19,2.19,0,0,0-1.21.34,3.33,3.33,0,0,0-.88.83Z" style="fill:#fff"/><path d="M88.44,10.13l.41,4.25a5.81,5.81,0,0,1-1.38,1.53A7,7,0,0,1,85.27,17a10.17,10.17,0,0,1-3.17.43,13.19,13.19,0,0,1-5.35-1,7.87,7.87,0,0,1-3.51-3A8.59,8.59,0,0,1,72,8.71,8.68,8.68,0,0,1,73.21,4,7.86,7.86,0,0,1,76.7,1a13.12,13.12,0,0,1,5.45-1,15.62,15.62,0,0,1,3.52.36,12.67,12.67,0,0,1,2.55.84l-.09,4.37h-.22a5.94,5.94,0,0,0-2.1-3.47,5.69,5.69,0,0,0-3.32-1A5.44,5.44,0,0,0,79.32,2a5.72,5.72,0,0,0-2,2.59,10.38,10.38,0,0,0-.71,4,11.15,11.15,0,0,0,.68,4.09,5.84,5.84,0,0,0,1.9,2.65,5,5,0,0,0,2.94,1,7.15,7.15,0,0,0,3.11-.59,4.29,4.29,0,0,0,1.93-2,12.68,12.68,0,0,0,1.11-3.68Z" style="fill:#fff"/><path d="M93,15.62c-.18.42-.16.74.07,1a1,1,0,0,0,.74.33H94v.24H89.09V16.9h.19a2.14,2.14,0,0,0,1-.29,2.08,2.08,0,0,0,.86-1ZM97.44,2l0,3.29-5.13,11.8H90.48L96.07,5c.05-.13.13-.32.25-.58s.25-.54.39-.86.25-.63.36-.92A3.36,3.36,0,0,0,97.25,2Zm1.87,10.75v1H93.24v-1ZM97.44,2,104.74,17H100L95.71,7.13Zm1.92,13.65H104a2.08,2.08,0,0,0,.86,1,2.17,2.17,0,0,0,1,.29h.19v.24H98.35V16.9h.19a1.05,1.05,0,0,0,.75-.33A.8.8,0,0,0,99.36,15.62Z" style="fill:#fff"/><path d="M111.38,2.45l1.14,0c.49,0,1,.06,1.52.11s1,.1,1.38.16a3.66,3.66,0,0,1,.74.15L115.75,6h-.17a2.25,2.25,0,0,0-.81-1.8,3.31,3.31,0,0,0-2.23-.7,3.18,3.18,0,0,0-1.83.47A1.65,1.65,0,0,0,110,5.21a1.29,1.29,0,0,0,.21.83,2.14,2.14,0,0,0,.66.6c.28.16.58.33.9.49L115.17,9a4,4,0,0,1,1.73,1.49,3.78,3.78,0,0,1,.53,2.45,4.28,4.28,0,0,1-.83,2.44,4.61,4.61,0,0,1-2.08,1.53,8.87,8.87,0,0,1-3.16.51,11.57,11.57,0,0,1-2-.16,6.54,6.54,0,0,1-1.54-.47,2.59,2.59,0,0,1-.93-.69,2.35,2.35,0,0,1-.19-1.23,6.07,6.07,0,0,1,.27-1.45,4.33,4.33,0,0,1,.54-1.18h.17a4.14,4.14,0,0,0,.42,2,3.68,3.68,0,0,0,1.43,1.53,4.45,4.45,0,0,0,2.3.62,2.74,2.74,0,0,0,2-.63,1.91,1.91,0,0,0,.64-1.41,1.71,1.71,0,0,0-.49-1.19,5,5,0,0,0-1.6-1l-3-1.68a4.18,4.18,0,0,1-2-1.77,4,4,0,0,1-.42-2.57,4.46,4.46,0,0,1,.72-2,3.64,3.64,0,0,1,1.53-1.23A5.35,5.35,0,0,1,111.38,2.45Zm4.83.21,0,.41H113.3V2.66Z" style="fill:#fff"/><path d="M118.22,2.35a4.74,4.74,0,0,0,.6.16c.28.05.58.1.92.14a8,8,0,0,0,1,.06L118.22,3Zm14.14.36V3.77H118.22V2.71Zm-11.4,1v.1a2.53,2.53,0,0,0-1.85.69,2.62,2.62,0,0,0-.65,1.88V6.5h-.24V3.67Zm2.33,12v1.49H121.7V16.9h.24a1.25,1.25,0,0,0,.92-.36,1.32,1.32,0,0,0,.38-.89Zm4-12.84V17.14h-4.1V2.81Zm-.09,12.84h.09a1.14,1.14,0,0,0,.36.89,1.3,1.3,0,0,0,.92.36h.24v.24h-1.61Zm5.11-12V6.5h-.24V6.34a2.58,2.58,0,0,0-.66-1.88,2.57,2.57,0,0,0-1.86-.69v-.1Zm0-1.32V3l-2.47-.24a8.34,8.34,0,0,0,1-.06c.34,0,.66-.09.94-.14A2.8,2.8,0,0,0,132.36,2.35Z" style="fill:#fff"/><path d="M135.17,4.22h-.08a1.26,1.26,0,0,0-.4-.9,1.33,1.33,0,0,0-.92-.34h-.26V2.74h1.66Zm0,11.43v1.49h-1.66V16.9h.26a1.3,1.3,0,0,0,.92-.36,1.25,1.25,0,0,0,.4-.89Zm4-12.91v14.4h-4.06V2.74Zm-.05,1.48V2.74h1.63V3h-.24a1.34,1.34,0,0,0-.93.34,1.17,1.17,0,0,0-.39.9Zm0,11.43h.07a1.17,1.17,0,0,0,.39.89,1.31,1.31,0,0,0,.93.36h.27v.24H139.1Z" style="fill:#fff"/><path d="M143.52,4.22h-.07a1.2,1.2,0,0,0-.38-.9,1.25,1.25,0,0,0-.9-.34h-.26V2.74h1.61Zm0,11.43,0,1.49h-1.66V16.9h.26a1.22,1.22,0,0,0,.9-.36,1.19,1.19,0,0,0,.38-.89Zm4-12.91v14.4h-4.1V2.74Zm-.07,1.48V2.74h1.63V3h-.26a1.32,1.32,0,0,0-.93.34,1.19,1.19,0,0,0-.37.9Zm5.37,11.88.8,1H147.5v-1Zm1.66-3.69-.82,4.73H149.4l.72-1a3.73,3.73,0,0,0,1.81-.44,4.44,4.44,0,0,0,1.44-1.27,5.46,5.46,0,0,0,.9-2Z" style="fill:#fff"/><path d="M156.67,4.22h-.07a1.23,1.23,0,0,0-.37-.9,1.28,1.28,0,0,0-.9-.34h-.27V2.74h1.61Zm0,11.43.05,1.49h-1.66V16.9h.27a1.25,1.25,0,0,0,.9-.36,1.22,1.22,0,0,0,.37-.89Zm4-12.91v14.4h-4.1V2.74Zm-.07,1.48V2.74h1.63V3H162a1.32,1.32,0,0,0-.93.34,1.23,1.23,0,0,0-.37.9ZM166,16.1l.79,1h-6.15v-1Zm1.65-3.69-.81,4.73h-4.3l.72-1a3.7,3.7,0,0,0,1.81-.44,4.44,4.44,0,0,0,1.44-1.27,5.46,5.46,0,0,0,.9-2Z" style="fill:#fff"/><path d="M177.36,2.45a12,12,0,0,1,3.56.5,7.77,7.77,0,0,1,2.74,1.48,6.35,6.35,0,0,1,1.73,2.36A8.14,8.14,0,0,1,186,10a7.94,7.94,0,0,1-.58,3.13,6.31,6.31,0,0,1-1.73,2.35,7.77,7.77,0,0,1-2.74,1.48,11.65,11.65,0,0,1-3.56.5,11.76,11.76,0,0,1-3.57-.5,7.81,7.81,0,0,1-2.73-1.48,6.2,6.2,0,0,1-1.73-2.35,7.94,7.94,0,0,1-.59-3.13,8.14,8.14,0,0,1,.59-3.17,6.24,6.24,0,0,1,1.73-2.36A7.81,7.81,0,0,1,173.79,3,12.08,12.08,0,0,1,177.36,2.45Zm0,14a3.63,3.63,0,0,0,2.33-.77,4.77,4.77,0,0,0,1.47-2.22,10.26,10.26,0,0,0,.52-3.47,10.37,10.37,0,0,0-.52-3.5,4.83,4.83,0,0,0-1.47-2.24,4,4,0,0,0-4.66,0,4.94,4.94,0,0,0-1.49,2.24A10.35,10.35,0,0,0,173,10a10.25,10.25,0,0,0,.53,3.47A4.87,4.87,0,0,0,175,15.65,3.63,3.63,0,0,0,177.36,16.42Z" style="fill:#fff"/></g></g></svg>